<svg xmlns="http://www.w3.org/2000/svg" viewBox="0 0 100 100" preserveAspectRatio="xMidYMid" style="shape-rendering: auto; display: block; background: transparent;" width="428" height="428" xmlns:xlink="http://www.w3.org/1999/xlink"><g><g transform="rotate(0 50 50)">
  <rect fill="#00c0ff" height="6" width="6" ry="3" rx="3" y="36" x="47">
    <animate repeatCount="indefinite" begin="-0.6250000000000001s" dur="0.6944444444444444s" keyTimes="0;1" values="1;0" attributeName="opacity"></animate>
  </rect>
</g><g transform="rotate(36 50 50)">
  <rect fill="#00c0ff" height="6" width="6" ry="3" rx="3" y="36" x="47">
    <animate repeatCount="indefinite" begin="-0.5555555555555556s" dur="0.6944444444444444s" keyTimes="0;1" values="1;0" attributeName="opacity"></animate>
  </rect>
</g><g transform="rotate(72 50 50)">
  <rect fill="#00c0ff" height="6" width="6" ry="3" rx="3" y="36" x="47">
    <animate repeatCount="indefinite" begin="-0.48611111111111116s" dur="0.6944444444444444s" keyTimes="0;1" values="1;0" attributeName="opacity"></animate>
  </rect>
</g><g transform="rotate(108 50 50)">
  <rect fill="#00c0ff" height="6" width="6" ry="3" rx="3" y="36" x="47">
    <animate repeatCount="indefinite" begin="-0.4166666666666667s" dur="0.6944444444444444s" keyTimes="0;1" values="1;0" attributeName="opacity"></animate>
  </rect>
</g><g transform="rotate(144 50 50)">
  <rect fill="#00c0ff" height="6" width="6" ry="3" rx="3" y="36" x="47">
    <animate repeatCount="indefinite" begin="-0.34722222222222227s" dur="0.6944444444444444s" keyTimes="0;1" values="1;0" attributeName="opacity"></animate>
  </rect>
</g><g transform="rotate(180 50 50)">
  <rect fill="#00c0ff" height="6" width="6" ry="3" rx="3" y="36" x="47">
    <animate repeatCount="indefinite" begin="-0.2777777777777778s" dur="0.6944444444444444s" keyTimes="0;1" values="1;0" attributeName="opacity"></animate>
  </rect>
</g><g transform="rotate(216 50 50)">
  <rect fill="#00c0ff" height="6" width="6" ry="3" rx="3" y="36" x="47">
    <animate repeatCount="indefinite" begin="-0.20833333333333334s" dur="0.6944444444444444s" keyTimes="0;1" values="1;0" attributeName="opacity"></animate>
  </rect>
</g><g transform="rotate(252 50 50)">
  <rect fill="#00c0ff" height="6" width="6" ry="3" rx="3" y="36" x="47">
    <animate repeatCount="indefinite" begin="-0.1388888888888889s" dur="0.6944444444444444s" keyTimes="0;1" values="1;0" attributeName="opacity"></animate>
  </rect>
</g><g transform="rotate(288 50 50)">
  <rect fill="#00c0ff" height="6" width="6" ry="3" rx="3" y="36" x="47">
    <animate repeatCount="indefinite" begin="-0.06944444444444445s" dur="0.6944444444444444s" keyTimes="0;1" values="1;0" attributeName="opacity"></animate>
  </rect>
</g><g transform="rotate(324 50 50)">
  <rect fill="#00c0ff" height="6" width="6" ry="3" rx="3" y="36" x="47">
    <animate repeatCount="indefinite" begin="0s" dur="0.6944444444444444s" keyTimes="0;1" values="1;0" attributeName="opacity"></animate>
  </rect>
</g><g></g></g><!-- [ldio] generated by https://loading.io --></svg>